<svg width="24" height="24" viewBox="0 0 24 24" fill="none" xmlns="http://www.w3.org/2000/svg">
<path fill-rule="evenodd" clip-rule="evenodd" d="M9.99959 5.99974C9.99959 5.44736 9.55176 4.99974 8.99955 4.99974C8.12859 4.99974 6.87153 4.99974 5.99944 4.99974C5.44724 4.99974 4.99942 5.44736 4.99942 5.99974C4.99942 9.50132 4.99942 20.9997 4.99942 20.9997H9.99959V5.99974Z" stroke="#2D3E4F" stroke-width="1.5" stroke-miterlimit="1.5" stroke-linecap="round" stroke-linejoin="round"/>
<path fill-rule="evenodd" clip-rule="evenodd" d="M14.9996 12.0002C14.9996 11.4478 14.5517 11.0002 13.9995 11.0002C13.1286 11.0002 11.8715 11.0002 10.9994 11.0002C10.4472 11.0002 9.99939 11.4478 9.99939 12.0002C9.99939 14.5327 9.99939 21.0002 9.99939 21.0002H14.9996V12.0002Z" stroke="#2D3E4F" stroke-width="1.5" stroke-miterlimit="1.5" stroke-linecap="round" stroke-linejoin="round"/>
<path fill-rule="evenodd" clip-rule="evenodd" d="M19.9996 16.0002C19.9996 15.735 19.8941 15.4807 19.7066 15.2931C19.5192 15.1055 19.2656 15.0002 18.9995 15.0002C18.1286 15.0002 16.8715 15.0002 15.9994 15.0002C15.7346 15.0002 15.4809 15.1055 15.2924 15.2931C15.1049 15.4807 14.9994 15.735 14.9994 16.0002C14.9994 17.7071 14.9994 21.0002 14.9994 21.0002H19.9996V16.0002Z" stroke="#2D3E4F" stroke-width="1.5" stroke-miterlimit="1.5" stroke-linecap="round" stroke-linejoin="round"/>
</svg>
