<svg width="24" height="24" viewBox="0 0 24 24" fill="none" xmlns="http://www.w3.org/2000/svg">
<path fill-rule="evenodd" clip-rule="evenodd" d="M13.125 14.875C13.125 15.496 12.62 16 12 16C11.38 16 10.875 15.496 10.875 14.875C10.875 14.254 11.38 13.75 12 13.75C12.62 13.75 13.125 14.254 13.125 14.875ZM12 8.93925L8.03003 4.96976C7.73753 4.67701 7.26247 4.67701 6.96997 4.96976C6.67747 5.26226 6.67747 5.73774 6.96997 6.03024L10.94 10L6.96997 13.9698C6.67747 14.2623 6.67747 14.7377 6.96997 15.0302C7.26247 15.323 7.73753 15.323 8.03003 15.0302L12 11.0607L15.97 15.0302C16.2625 15.323 16.7375 15.323 17.03 15.0302C17.3225 14.7377 17.3225 14.2623 17.03 13.9698L13.06 10L17.03 6.03024C17.3225 5.73774 17.3225 5.26226 17.03 4.96976C16.7375 4.67701 16.2625 4.67701 15.97 4.96976L12 8.93925ZM7.125 8.875C7.745 8.875 8.25 9.379 8.25 10C8.25 10.621 7.745 11.125 7.125 11.125C6.505 11.125 6 10.621 6 10C6 9.379 6.505 8.875 7.125 8.875ZM16.875 8.875C17.495 8.875 18 9.379 18 10C18 10.621 17.495 11.125 16.875 11.125C16.255 11.125 15.75 10.621 15.75 10C15.75 9.379 16.255 8.875 16.875 8.875ZM13.125 5.125C13.125 5.746 12.62 6.25 12 6.25C11.38 6.25 10.875 5.746 10.875 5.125C10.875 4.504 11.38 4 12 4C12.62 4 13.125 4.504 13.125 5.125Z" fill="#677683"/>
</svg>
