<svg width="16" height="16" viewBox="0 0 16 16" fill="none" xmlns="http://www.w3.org/2000/svg">
<path fill-rule="evenodd" clip-rule="evenodd" d="M7.26654 3.72928C7.26912 3.32548 7.59646 2.99986 8.00026 2.99986C8.40321 2.99986 8.73139 3.32548 8.73311 3.72928L8.74686 5.98285C8.74772 6.13234 8.82677 6.26894 8.95564 6.34369C9.08537 6.41843 9.24345 6.41843 9.37319 6.34455L11.332 5.22937C11.6826 5.03004 12.1285 5.15033 12.3295 5.5C12.5314 5.84968 12.4137 6.29557 12.0649 6.49919L10.1198 7.63756C9.99091 7.71317 9.91188 7.85064 9.91188 8.00013C9.91188 8.14877 9.99091 8.28623 10.1198 8.36183L12.0649 9.50021C12.4137 9.70383 12.5314 10.1506 12.3295 10.5003C12.1285 10.8491 11.6826 10.9702 11.332 10.77L9.37319 9.65486C9.24345 9.58097 9.08537 9.58183 8.95564 9.65572C8.82677 9.73047 8.74772 9.86793 8.74686 10.0166L8.73311 12.271C8.73139 12.6739 8.40321 12.9995 8.00026 12.9995C7.59646 12.9995 7.26912 12.6739 7.26654 12.271L7.25365 10.0166C7.2528 9.86793 7.1729 9.73047 7.04403 9.65572C6.9143 9.58183 6.75621 9.58097 6.62648 9.65486L4.66761 10.77C4.31708 10.9702 3.87118 10.8491 3.67014 10.5003C3.46824 10.1506 3.58594 9.70383 3.93475 9.50021L5.87987 8.36183C6.00874 8.28623 6.08779 8.14877 6.08779 8.00013C6.08779 7.85064 6.00874 7.71317 5.87987 7.63756L3.93475 6.49919C3.58594 6.29557 3.46824 5.84968 3.67014 5.5C3.87118 5.15033 4.31708 5.03004 4.66761 5.22937L6.62648 6.34455C6.75621 6.41843 6.9143 6.41843 7.04403 6.34369C7.1729 6.26894 7.2528 6.13234 7.25365 5.98285L7.26654 3.72928Z" fill="#ED7B3B"/>
</svg>
