<svg width="32" height="32" viewBox="0 0 32 32" fill="none" xmlns="http://www.w3.org/2000/svg">
<circle cx="16" cy="16" r="16" fill="#F3F5F7"/>
<path fill-rule="evenodd" clip-rule="evenodd" d="M13 14.5C13 13.1193 14.1193 12 15.5 12C16.8807 12 18 13.1193 18 14.5C18 15.8807 16.8807 17 15.5 17C14.1193 17 13 15.8807 13 14.5ZM15.5 10C13.0147 10 11 12.0147 11 14.5C11 16.9853 13.0147 19 15.5 19C16.0281 19 16.535 18.9091 17.0057 18.7419L19.134 22.4281C19.4101 22.9064 20.0217 23.0702 20.5 22.7941C20.9783 22.5179 21.1422 21.9063 20.866 21.428L18.6954 17.6685C19.5019 16.8553 20 15.7358 20 14.5C20 12.0147 17.9853 10 15.5 10Z" fill="#B4BFC8"/>
</svg>
